# xmcd CD database file
#
# Track frame offsets:
#	150
#	11873
#	24142
#	35363
#	45204
#	58981
#	69493
#	87709
#	100778
#	113992
#	142477
#	154467
#	167792
#	177577
#
# Disc length: 2522 seconds
#
# Revision: 1
# Processed by: cddbd v1.5.2PL0 Copyright (c) Steve Scherf et al.
# Submitted via: CDex 1.51
#
DISCID=c709d80e
DTITLE=John Lee Hooker - Legends of the 20th century CD2
DYEAR=2009
DGENRE=Blues
TTITLE0=Boogie Chillen
TTITLE1=I'm In The Mood
TTITLE2=Boom Boom
TTITLE3=Dimples
TTITLE4=Hobo Blues
TTITLE5=Dusty Road
TTITLE6=House Rent Boogie
TTITLE7=I'm So Excited
TTITLE8=Baby Lee
TTITLE9=Drug Store Woman
TTITLE10=Frisco
TTITLE11=Whiskey and Wimmen
TTITLE12=Onions
TTITLE13=Good Rockin' Mama
EXTD=YEAR: 2009
EXTT0=
EXTT1=
EXTT2=
EXTT3=
EXTT4=
EXTT5=
EXTT6=
EXTT7=
EXTT8=
EXTT9=
EXTT10=
EXTT11=
EXTT12=
EXTT13=
PLAYORDER=
